<mxfile host="app.diagrams.net" modified="2022-05-17T03:54:03.858Z" agent="5.0 (Macintosh; Intel Mac OS X 10_15_7) AppleWebKit/537.36 (KHTML, like Gecko) Chrome/101.0.4951.64 Safari/537.36" etag="yRHptd8FhWGH6IIJRAmZ" version="18.0.3" type="github">
  <diagram id="vYhIYeuhMKYq1YM2tLH0" name="Page-1">
    <mxGraphModel dx="2581" dy="971" grid="1" gridSize="10" guides="1" tooltips="1" connect="1" arrows="1" fold="1" page="1" pageScale="1" pageWidth="850" pageHeight="1100" math="0" shadow="0">
      <root>
        <mxCell id="0" />
        <mxCell id="1" parent="0" />
        <mxCell id="VPi010c3T4Fb0CU36pfW-24" value="&lt;b style=&quot;font-size: 16px;&quot;&gt;API Interface&lt;/b&gt;" style="rounded=1;whiteSpace=wrap;html=1;dashed=1;fontSize=16;fillColor=default;align=left;verticalAlign=top;spacingTop=22;spacingLeft=23;fillOpacity=50;" parent="1" vertex="1">
          <mxGeometry x="150" y="210" width="1460" height="130" as="geometry" />
        </mxCell>
        <mxCell id="VPi010c3T4Fb0CU36pfW-23" value="&lt;b style=&quot;font-size: 16px;&quot;&gt;Infrastructure&lt;/b&gt;" style="rounded=1;whiteSpace=wrap;html=1;dashed=1;fontSize=16;fillColor=default;align=left;verticalAlign=top;spacingTop=22;spacingLeft=23;fillOpacity=50;" parent="1" vertex="1">
          <mxGeometry x="150" y="860" width="1470" height="197" as="geometry" />
        </mxCell>
        <mxCell id="VPi010c3T4Fb0CU36pfW-22" value="&lt;b style=&quot;font-size: 16px;&quot;&gt;Domain Service&lt;/b&gt;" style="rounded=1;whiteSpace=wrap;html=1;dashed=1;fontSize=16;fillColor=default;align=left;verticalAlign=top;spacingTop=22;spacingLeft=23;fillOpacity=50;" parent="1" vertex="1">
          <mxGeometry x="150" y="400" width="1460" height="377" as="geometry" />
        </mxCell>
        <mxCell id="VPi010c3T4Fb0CU36pfW-5" style="edgeStyle=orthogonalEdgeStyle;rounded=0;orthogonalLoop=1;jettySize=auto;html=1;exitX=0.25;exitY=0;exitDx=0;exitDy=0;entryX=0.5;entryY=1;entryDx=0;entryDy=0;fontSize=16;" parent="1" source="00cH1n4YGTlZ0PjOOUdn-2" target="VPi010c3T4Fb0CU36pfW-1" edge="1">
          <mxGeometry relative="1" as="geometry" />
        </mxCell>
        <mxCell id="VPi010c3T4Fb0CU36pfW-17" style="edgeStyle=orthogonalEdgeStyle;rounded=0;orthogonalLoop=1;jettySize=auto;html=1;exitX=0.75;exitY=0;exitDx=0;exitDy=0;entryX=0.5;entryY=1;entryDx=0;entryDy=0;fontSize=16;" parent="1" source="00cH1n4YGTlZ0PjOOUdn-2" target="VPi010c3T4Fb0CU36pfW-15" edge="1">
          <mxGeometry relative="1" as="geometry" />
        </mxCell>
        <mxCell id="00cH1n4YGTlZ0PjOOUdn-2" value="Token Price API Service" style="rounded=0;whiteSpace=wrap;html=1;fontSize=16;" parent="1" vertex="1">
          <mxGeometry x="1250" y="640" width="130" height="70" as="geometry" />
        </mxCell>
        <mxCell id="Fwv69hDyFIpPu4L3yp6a-8" style="edgeStyle=orthogonalEdgeStyle;rounded=0;orthogonalLoop=1;jettySize=auto;html=1;exitX=0.75;exitY=1;exitDx=0;exitDy=0;entryX=0.25;entryY=0;entryDx=0;entryDy=0;fontSize=16;" edge="1" parent="1" source="00cH1n4YGTlZ0PjOOUdn-3" target="00cH1n4YGTlZ0PjOOUdn-7">
          <mxGeometry relative="1" as="geometry" />
        </mxCell>
        <mxCell id="00cH1n4YGTlZ0PjOOUdn-3" value="Token Price Scan Service Master" style="rounded=0;whiteSpace=wrap;html=1;fontSize=16;" parent="1" vertex="1">
          <mxGeometry x="470" y="640" width="183" height="90" as="geometry" />
        </mxCell>
        <mxCell id="Fwv69hDyFIpPu4L3yp6a-11" style="edgeStyle=orthogonalEdgeStyle;rounded=0;orthogonalLoop=1;jettySize=auto;html=1;entryX=0.326;entryY=1.011;entryDx=0;entryDy=0;entryPerimeter=0;fontSize=16;" edge="1" parent="1" source="00cH1n4YGTlZ0PjOOUdn-4" target="00cH1n4YGTlZ0PjOOUdn-3">
          <mxGeometry relative="1" as="geometry" />
        </mxCell>
        <mxCell id="00cH1n4YGTlZ0PjOOUdn-4" value="Message Broker" style="rounded=0;whiteSpace=wrap;html=1;fontSize=16;" parent="1" vertex="1">
          <mxGeometry x="450" y="950" width="160" height="80" as="geometry" />
        </mxCell>
        <mxCell id="Fwv69hDyFIpPu4L3yp6a-3" style="edgeStyle=orthogonalEdgeStyle;rounded=0;orthogonalLoop=1;jettySize=auto;html=1;exitX=0.75;exitY=0;exitDx=0;exitDy=0;entryX=0;entryY=0.5;entryDx=0;entryDy=0;fontSize=16;" edge="1" parent="1" source="00cH1n4YGTlZ0PjOOUdn-7" target="VPi010c3T4Fb0CU36pfW-2">
          <mxGeometry relative="1" as="geometry" />
        </mxCell>
        <mxCell id="00cH1n4YGTlZ0PjOOUdn-7" value="Tasks queue" style="rounded=0;whiteSpace=wrap;html=1;fontSize=16;" parent="1" vertex="1">
          <mxGeometry x="660" y="950" width="170" height="80" as="geometry" />
        </mxCell>
        <mxCell id="VPi010c3T4Fb0CU36pfW-14" style="edgeStyle=orthogonalEdgeStyle;rounded=0;orthogonalLoop=1;jettySize=auto;html=1;exitX=0.75;exitY=0;exitDx=0;exitDy=0;entryX=1;entryY=0.5;entryDx=0;entryDy=0;fontSize=16;" parent="1" source="00cH1n4YGTlZ0PjOOUdn-8" target="00cH1n4YGTlZ0PjOOUdn-2" edge="1">
          <mxGeometry relative="1" as="geometry" />
        </mxCell>
        <mxCell id="00cH1n4YGTlZ0PjOOUdn-8" value="Datastore&lt;br style=&quot;font-size: 16px;&quot;&gt;(Redis)" style="rounded=0;whiteSpace=wrap;html=1;fontSize=16;" parent="1" vertex="1">
          <mxGeometry x="1430" y="940" width="130" height="80" as="geometry" />
        </mxCell>
        <mxCell id="VPi010c3T4Fb0CU36pfW-27" style="edgeStyle=orthogonalEdgeStyle;rounded=0;orthogonalLoop=1;jettySize=auto;html=1;exitX=0.5;exitY=0;exitDx=0;exitDy=0;entryX=0.5;entryY=1;entryDx=0;entryDy=0;fontSize=16;" parent="1" source="VPi010c3T4Fb0CU36pfW-1" target="VPi010c3T4Fb0CU36pfW-26" edge="1">
          <mxGeometry relative="1" as="geometry" />
        </mxCell>
        <mxCell id="VPi010c3T4Fb0CU36pfW-1" value="gRPC Gateway" style="rounded=0;whiteSpace=wrap;html=1;fontSize=16;" parent="1" vertex="1">
          <mxGeometry x="1110" y="245" width="120" height="60" as="geometry" />
        </mxCell>
        <mxCell id="VPi010c3T4Fb0CU36pfW-12" style="edgeStyle=orthogonalEdgeStyle;rounded=0;orthogonalLoop=1;jettySize=auto;html=1;exitX=1;exitY=0.5;exitDx=0;exitDy=0;fontSize=16;entryX=0.25;entryY=0;entryDx=0;entryDy=0;" parent="1" source="VPi010c3T4Fb0CU36pfW-2" edge="1" target="00cH1n4YGTlZ0PjOOUdn-8">
          <mxGeometry relative="1" as="geometry">
            <mxPoint x="1490" y="940" as="targetPoint" />
            <Array as="points">
              <mxPoint x="1050" y="675" />
              <mxPoint x="1080" y="675" />
              <mxPoint x="1080" y="740" />
              <mxPoint x="1463" y="740" />
            </Array>
          </mxGeometry>
        </mxCell>
        <mxCell id="VPi010c3T4Fb0CU36pfW-2" value="Token Price Scan Service Worker" style="rounded=0;whiteSpace=wrap;html=1;fontSize=16;" parent="1" vertex="1">
          <mxGeometry x="870" y="640" width="180" height="90" as="geometry" />
        </mxCell>
        <mxCell id="VPi010c3T4Fb0CU36pfW-29" style="edgeStyle=orthogonalEdgeStyle;rounded=0;orthogonalLoop=1;jettySize=auto;html=1;exitX=0.5;exitY=0;exitDx=0;exitDy=0;fontSize=16;" parent="1" source="VPi010c3T4Fb0CU36pfW-15" target="VPi010c3T4Fb0CU36pfW-28" edge="1">
          <mxGeometry relative="1" as="geometry" />
        </mxCell>
        <mxCell id="VPi010c3T4Fb0CU36pfW-15" value="gRPC" style="rounded=0;whiteSpace=wrap;html=1;fontSize=16;" parent="1" vertex="1">
          <mxGeometry x="1380" y="240" width="120" height="60" as="geometry" />
        </mxCell>
        <mxCell id="VPi010c3T4Fb0CU36pfW-20" value="" style="rounded=1;whiteSpace=wrap;html=1;fontSize=16;dashed=1;fillOpacity=50;" parent="1" vertex="1">
          <mxGeometry x="700" y="460" width="332.5" height="135" as="geometry" />
        </mxCell>
        <mxCell id="VPi010c3T4Fb0CU36pfW-19" value="Token" style="ellipse;whiteSpace=wrap;html=1;fontSize=16;" parent="1" vertex="1">
          <mxGeometry x="730" y="500" width="120" height="80" as="geometry" />
        </mxCell>
        <mxCell id="VPi010c3T4Fb0CU36pfW-21" value="&lt;b style=&quot;font-size: 16px;&quot;&gt;Domain&lt;/b&gt;" style="text;html=1;strokeColor=none;fillColor=none;align=center;verticalAlign=middle;whiteSpace=wrap;rounded=0;dashed=1;fontSize=16;" parent="1" vertex="1">
          <mxGeometry x="710" y="470" width="60" height="30" as="geometry" />
        </mxCell>
        <mxCell id="VPi010c3T4Fb0CU36pfW-26" value="Clients" style="ellipse;whiteSpace=wrap;html=1;aspect=fixed;shadow=1;fontSize=16;fillColor=default;" parent="1" vertex="1">
          <mxGeometry x="1130" y="30" width="80" height="80" as="geometry" />
        </mxCell>
        <mxCell id="VPi010c3T4Fb0CU36pfW-28" value="Other services" style="ellipse;whiteSpace=wrap;html=1;aspect=fixed;shadow=1;fontSize=16;fillColor=default;" parent="1" vertex="1">
          <mxGeometry x="1400" y="20" width="80" height="80" as="geometry" />
        </mxCell>
        <mxCell id="0GMuriRPIV73mQWH51Op-1" value="Price" style="ellipse;whiteSpace=wrap;html=1;fontSize=16;" parent="1" vertex="1">
          <mxGeometry x="880" y="500" width="120" height="80" as="geometry" />
        </mxCell>
        <mxCell id="0GMuriRPIV73mQWH51Op-3" style="edgeStyle=orthogonalEdgeStyle;rounded=0;orthogonalLoop=1;jettySize=auto;html=1;entryX=0.75;entryY=1;entryDx=0;entryDy=0;fontSize=16;" parent="1" source="0GMuriRPIV73mQWH51Op-2" target="VPi010c3T4Fb0CU36pfW-2" edge="1">
          <mxGeometry relative="1" as="geometry" />
        </mxCell>
        <mxCell id="0GMuriRPIV73mQWH51Op-2" value="External Price Sources (Coingecko, Coinmarketcap, Dextools, ...)" style="rounded=0;whiteSpace=wrap;html=1;fontSize=16;" parent="1" vertex="1">
          <mxGeometry x="935" y="950" width="210" height="80" as="geometry" />
        </mxCell>
        <mxCell id="Fwv69hDyFIpPu4L3yp6a-9" style="edgeStyle=orthogonalEdgeStyle;rounded=0;orthogonalLoop=1;jettySize=auto;html=1;entryX=0;entryY=0.5;entryDx=0;entryDy=0;fontSize=16;" edge="1" parent="1" source="Fwv69hDyFIpPu4L3yp6a-5" target="00cH1n4YGTlZ0PjOOUdn-3">
          <mxGeometry relative="1" as="geometry" />
        </mxCell>
        <mxCell id="Fwv69hDyFIpPu4L3yp6a-10" value="Get pools state to bootstrap data" style="edgeLabel;html=1;align=center;verticalAlign=middle;resizable=0;points=[];fontSize=16;" vertex="1" connectable="0" parent="Fwv69hDyFIpPu4L3yp6a-9">
          <mxGeometry x="-0.6432" y="1" relative="1" as="geometry">
            <mxPoint x="62" y="-14" as="offset" />
          </mxGeometry>
        </mxCell>
        <mxCell id="Fwv69hDyFIpPu4L3yp6a-5" value="Pool Service" style="rounded=0;whiteSpace=wrap;html=1;fontSize=16;" vertex="1" parent="1">
          <mxGeometry x="-190" y="640" width="183" height="90" as="geometry" />
        </mxCell>
      </root>
    </mxGraphModel>
  </diagram>
</mxfile>
